<svg width="16" height="16" viewBox="0 0 16 16" xmlns="http://www.w3.org/2000/svg">
 <g>
  <title>Layer 1</title>
  <g id="svg_1">
   <path id="svg_2" d="m9.32783,11.99292c0,-2.20785 1.78983,-3.99764 3.99764,-3.99764c0.99601,0 1.90684,0.36434 2.60676,0.96687c0.0382,-0.317 0.05833,-0.63959 0.05833,-0.96687c0,-4.40947 -3.56964,-7.98499 -7.97674,-7.99506c1.51359,0.00507 2.73909,1.23338 2.73909,2.74816c0,1.51788 -1.23049,2.74838 -2.74838,2.74838c-1.51792,0 -2.74838,-1.23049 -2.74838,-2.74838c0,-1.51684 1.22879,-2.74663 2.7453,-2.74831c-0.00208,0 -0.00415,-0.00007 -0.00618,-0.00007c-4.41568,0 -7.99528,3.57962 -7.99528,7.99528c0,0.32733 0.02014,0.64988 0.05838,0.96687c0.69989,-0.60253 1.61072,-0.96687 2.60672,-0.96687c2.20781,0 3.99764,1.7898 3.99764,3.99764c0,1.40413 -0.72405,2.63896 -1.81903,3.3521c0.9671,0.4152 2.03239,0.64555 3.15159,0.64555s2.18449,-0.23034 3.15159,-0.64555c-1.09498,-0.71314 -1.81904,-1.94796 -1.81904,-3.3521l0,0l0.00001,0.00001z" fill="#FCCA03"/>
   <path id="svg_3" d="m8.00453,-0.00001c-0.00103,0 -0.00207,0.00007 -0.00307,0.00007c0.00415,0 0.00825,0.00015 0.01237,0.00015c-0.00311,0 -0.00618,-0.00022 -0.0093,-0.00022l0,0z" fill="#DD1812"/>
   <path id="svg_4" d="m5.25616,2.74837c0,1.51789 1.23046,2.74838 2.74838,2.74838c1.51788,0 2.74838,-1.23049 2.74838,-2.74838c0,-1.51477 -1.22549,-2.74308 -2.73909,-2.74816c-0.00415,0 -0.00825,-0.00015 -0.01237,-0.00015c-1.51651,0.00166 -2.7453,1.23145 -2.7453,2.74831l-0.00001,0z" fill="#DD1812"/>
   <path id="svg_5" d="m6.66273,11.99292c0,-2.20785 -1.78983,-3.99764 -3.99764,-3.99764c-0.99601,0 -1.90684,0.36434 -2.60676,0.96687c0.34669,2.87571 2.21969,5.28125 4.78537,6.38282c1.09498,-0.71309 1.81903,-1.94793 1.81903,-3.35206z" fill="#0140CA"/>
   <path id="svg_6" d="m15.93223,8.96214c-0.69992,-0.60253 -1.61075,-0.96687 -2.60676,-0.96687c-2.2078,0 -3.99764,1.7898 -3.99764,3.99764c0,1.40413 0.72405,2.63896 1.819,3.3521c2.56571,-1.10164 4.43871,-3.50715 4.7854,-6.38286l0,0z" fill="#16A61E"/>
  </g>
 </g>
</svg>